<svg xmlns="http://www.w3.org/2000/svg" style="shape-rendering:geometricPrecision;text-rendering:geometricPrecision;image-rendering:optimizeQuality;fill-rule:evenodd;clip-rule:evenodd" width="189" height="189" viewBox="0 0 189 189" xml:space="preserve">
  <path style="fill:#000;stroke:#000;stroke-width:.756;stroke-linecap:round;stroke-linejoin:round;stroke-miterlimit:22.9256" d="M93.752 1.574c51.64 0 93.502 41.862 93.502 93.502 0 51.641-41.862 93.503-93.502 93.503-51.64 0-93.503-41.862-93.503-93.503 0-51.64 41.863-93.502 93.503-93.502z"/>
  <path style="fill:#fff;fill-rule:nonzero" d="M176.277 126.95c-12.83-2.289-19.994 7.43-29.029 11.888 1.55.994 3.351.899 4.407 1.741 2.143 1.708 5.525 4.069 5.363 5.891-.192 2.163-3.27 4.69-5.679 5.836-1.921.913-4.714-.068-7.12-.091-1.33-.012-2.853-.16-3.964.399-8.987 4.521-8.954 4.564-12.235-4.814-.243-.696-.757-1.297-.904-1.542l-27.752 4.052-4.498 6.053-5.508-6.086-27.815-3.919c-.402 1.152-.876 2.442-1.303 3.748-2.363 7.213-3.859 7.637-10.058 3.61-1.614-1.049-3.97-.967-5.992-1.376-3.351-.679-6.707-1.334-10.056-2.407-.76-1.728-1.524-3.046-2.349-4.805 3.103-2.489 6.269-4.538 9.286-6.492-5.55-4.27-12.024-8.203-17.12-13.469-5.057-5.225-8.727-11.793-12.851-17.556 9.572-9.533 9.583-13.297 1.009-23.007 8.886-21.893 27.879-31.193 48.39-38.198V34.61c3.433 2.387 6.184 3.684 8.077 5.764 2.657 2.919 5.482 3.053 9.154 2.929 11.078-.377 22.189-.391 33.265.03 3.893.148 6.862-.081 9.642-3.159 1.835-2.031 4.606-3.216 7.912-5.414V45.2c11.982 6.25 23.138 12.23 34.462 17.873 14.736 7.346 13.99 5.29 9.114 22.237-.464 1.616-2.295 3.825-3.636 3.923-1.326.096-3.671-1.881-4.112-3.379-5.42-18.393-20.508-25.705-36.711-33.312-.63 28.221 2.852 54.492 14.809 79.825 9.427-7.042 18.267-13.376 21.71-24.685.58-1.907 2.728-3.336 4.152-4.986 1.368 1.914 3.319 3.647 3.982 5.781 1.432 4.603 2.202 9.413 3.318 14.48l.64 3.993zM61.104 71.287l.75-16.311c-14.857 3.51-28.765 18.965-31.041 34.057-2.507 16.628 3.35 29.882 16.824 40.86 8.497-18.748 12.219-37.815 13.467-58.606zm42.206 30.903c-3.163 13.731-5.612 27.534-4.849 42.848l25.99-4.315-5.837-73.947c-1.298 2.027-3.028 4.028-3.984 6.347-3.837 9.31-7.433 18.718-11.32 29.067zm-14.84 12.703c-3.449-17.154-7.844-33.935-18.092-47.803l-5.757 72.717 26.882 5.314c-1.064-10.844-1.964-20.013-3.033-30.228zm8.859-39.326 14.253-26.671H77.368l17.3 31.869c.858-1.585 1.612-2.977 2.661-5.198z"/>
</svg>
