<svg xmlns="http://www.w3.org/2000/svg" style="shape-rendering:geometricPrecision;text-rendering:geometricPrecision;image-rendering:optimizeQuality;fill-rule:evenodd;clip-rule:evenodd" width="189" height="189" viewBox="0 0 189 189" xml:space="preserve">
  <path style="fill:#039;stroke:#039;stroke-width:.756;stroke-linecap:round;stroke-linejoin:round;stroke-miterlimit:22.9256" d="M94.486 1.786c51.496 0 93.242 41.746 93.242 93.242 0 51.495-41.746 93.241-93.242 93.241S1.244 146.523 1.244 95.028c0-51.496 41.746-93.242 93.242-93.242z"/>
  <path style="fill:#fff;stroke:#fff;stroke-width:5.334;stroke-linecap:round;stroke-linejoin:round;stroke-miterlimit:22.9256" d="M167.228 65.403c1.315-1.108 2.437-1.123 2.437-1.674 0-.277-.222-.571-.721-.884-.497-.314-1.16-.571-1.935-.81a27.85 27.85 0 0 0-2.603-.589 16.196 16.196 0 0 0-2.822-.24c-1.828 0-3.654.276-5.37.847-3.542 1.233-6.862 1.841-9.852 1.841-.996 0-2.049-.055-3.265-.184a55.604 55.604 0 0 1-3.377-.46 73.162 73.162 0 0 1-4.872-.958 496.32 496.32 0 0 0-8.746-1.564c-2.822-.46-5.701-.829-8.69-1.123a215.603 215.603 0 0 0-9.52-.663c-3.432-.165-7.196-.239-11.291-.239-12.731 0-23.912 1.03-33.487 3.074-9.632 2.043-17.714 4.914-24.245 8.578-6.531 3.663-11.513 8.025-15 13.087-3.432 5.044-5.313 10.566-5.647 16.585 0 4.492 1.218 8.725 3.709 12.664 2.436 3.958 6.09 7.528 10.96 10.695 4.816 3.166 10.794 5.871 17.989 8.136 7.196 2.264 15.554 3.938 25.129 5.024 4.288.289 10.138 1.212 15.026 1.052.855.285 1.581-.004 2.632.071.996.072 2.436.111 4.317.111 9.963 0 19.263-.552 27.842-1.657 8.581-1.104 15.996-2.613 22.308-4.509 6.309-1.896 11.236-4.124 14.833-6.682 3.599-2.54 5.37-5.264 5.37-8.136 0-2.706-1.771-5.062-5.37-7.068-.83-.424-2.215-1.013-4.041-1.731-1.825-.718-3.93-1.399-6.254-2.061-2.324-.681-4.76-1.252-7.306-1.767-2.548-.497-4.927-.755-7.196-.755-3.156 0-6.144.423-8.912 1.252-2.712.791-4.095 1.767-4.095 2.963 0 1.215 1.383 2.209 4.095 2.964h.11c2.491.828 5.592 1.233 9.245 1.233 3.376 0 6.198-.313 8.469-.957 2.379.957 4.041 1.877 4.925 2.724.941.828 1.385 1.896 1.385 3.147 0 2.228-1.385 4.308-4.152 6.259-2.768 1.933-6.586 3.645-11.513 5.098-4.872 1.455-10.683 2.597-17.436 3.443-6.753.847-14.115 1.27-22.195 1.27-.83 0-1.993-.019-3.321-.055a370.275 370.275 0 0 1-4.817-.165c-4.13-.234-7.408-.704-15.277-1.621-14.391-2.411-24.963-6.258-31.715-11.559-6.753-5.301-10.13-11.726-10.13-19.291.331-5.485 1.937-10.474 4.76-14.928 2.879-4.455 6.919-8.265 12.122-11.431 5.204-3.166 11.68-5.614 19.317-7.363 7.639-1.748 16.385-2.65 26.238-2.724 5.535 0 10.462.147 14.833.423 4.374.295 8.471.768 12.233 1.473 4.872.914 7.245 1.343 9.624 1.963 6.244 1.623 30.068 2.254 35.265-2.129z"/>
  <path style="fill:#fff;fill-rule:nonzero;stroke:#fff;stroke-width:4;stroke-linecap:round;stroke-linejoin:round;stroke-miterlimit:6.05886" d="M62.069 57.966c-1.094-.054-1.657-.546-1.657-1.447 0-1.392.688-2.073 2.096-2.073h.812c7.722 0 14.946-2.894 21.636-8.708.438-.491.969-.737 1.563-.737.563 0 1.095.218 1.626.601.5.409.75.818.75 1.255 0 .246-.187.628-.624 1.119-1.22 1.856-2.252 3.466-3.065 4.831a37.958 37.958 0 0 0-2.158 3.986c-.625 1.309-1.124 2.729-1.563 4.257-.438 1.501-.812 3.303-1.188 5.377 2.095 0 4.065.164 5.941.465 1.875.272 3.627.791 5.252 1.555a15.32 15.32 0 0 1 4.409 3.03c1.313 1.283 2.438 2.921 3.377 4.968.719 1.528 1.094 2.92 1.094 4.148 0 1.665-.688 3.112-2.095 4.367-1.406 1.256-3.064 1.884-5.034 1.884-1.875 0-3.471-.573-4.783-1.693-1.313-1.119-1.97-2.511-1.97-4.148 0-2.047 1.031-3.658 3.095-4.886-1.031-.683-2.251-1.228-3.627-1.637-1.344-.411-2.939-.629-4.72-.683h-.657l.281 21.563c1.719.737 3.627 1.283 5.784 1.637 2.126.355 4.377.519 6.692.519 2.251 0 4.876-.164 7.879-.491 3.001-.3 6.096-1.01 9.317-2.075 3.188-1.064 6.346-2.566 9.473-4.558 3.126-1.965 5.909-4.612 8.348-7.97 1.782-2.511 3.127-5.186 4.033-8.024.907-2.866 1.376-5.978 1.376-9.308 0-5.295-.875-9.99-2.627-14.112-1.719-4.121-4.095-7.615-7.097-10.481-2.97-2.838-6.503-5.022-10.536-6.55-4.034-1.502-8.348-2.266-13.007-2.266-1.813 0-3.69.164-5.534.491a143.74 143.74 0 0 0-6.316 1.256c-2.376.491-5.065 1.092-8.066 1.719-3.033.656-6.66 1.284-10.88 1.939a19.749 19.749 0 0 1-3.659.327c-1.407 0-2.782-.163-4.158-.518-1.376-.355-2.627-.873-3.721-1.583-1.094-.683-2.002-1.529-2.688-2.539-.72-.982-1.064-2.129-1.064-3.412 0-1.992.75-3.576 2.282-4.749 1.501-1.174 3.159-1.774 4.972-1.774a7.37 7.37 0 0 1 2.657.491 7.582 7.582 0 0 1 2.251 1.365c.688.6 1.22 1.31 1.657 2.101a5.52 5.52 0 0 1 .626 2.566v.546c1.533-.164 3.784-.546 6.785-1.201 3.001-.627 6.815-1.583 11.381-2.866 4.408-1.01 8.785-1.529 13.131-1.529 5.94 0 11.475.956 16.633 2.839 5.129 1.884 9.568 4.613 13.351 8.162 3.752 3.548 6.723 7.834 8.848 12.855 2.157 5.05 3.221 10.699 3.221 17.005 0 6.387-1.376 12.064-4.159 17.004-2.782 4.968-6.472 9.116-11.005 12.474-4.565 3.357-9.755 5.896-15.602 7.642a63.49 63.49 0 0 1-18.009 2.593c-4.283 0-8.411-.545-12.382-1.61l.657 42.061c0 2.183.187 4.122.594 5.759a18.59 18.59 0 0 0 1.719 4.613 25.485 25.485 0 0 0 2.847 4.121 148.945 148.945 0 0 0 3.907 4.422c.532.41.813.846.813 1.283 0 .41-.25.874-.719 1.365-.501.464-1 .71-1.469.71-.501 0-1.001-.219-1.47-.628-3.502-1.611-7.004-2.402-10.537-2.402-4.283 0-8.629 1.174-13.037 3.521-.532.327-1.032.491-1.47.491-.469 0-.937-.218-1.407-.682-.469-.436-.688-.901-.688-1.311 0-.491.313-.927.907-1.282a290.36 290.36 0 0 0 5.409-5.05c1.345-1.283 2.407-2.566 3.158-3.848.781-1.256 1.375-2.73 1.782-4.395.437-1.638.844-3.903 1.219-6.797l-.657-45.281c-3.845-2.238-6.846-4.913-8.972-8.024-2.158-3.139-3.221-6.578-3.221-10.372 0-2.976 1.001-5.733 2.971-8.271 2-2.538 4.876-4.421 8.66-5.65-.062-1.746-.282-3.139-.688-4.149a6.187 6.187 0 0 0-1.782-2.483c-.782-.628-1.813-1.147-3.064-1.556a403.936 403.936 0 0 1-4.44-1.474zm10.162 17.905c-1.314 1.119-2.189 2.102-2.658 2.975-.469.847-.719 2.021-.719 3.522.125 1.692.531 3.138 1.188 4.339a17.844 17.844 0 0 0 2.376 3.33l-.187-14.166z"/>
</svg>
