<svg xmlns="http://www.w3.org/2000/svg" style="shape-rendering:geometricPrecision;text-rendering:geometricPrecision;image-rendering:optimizeQuality;fill-rule:evenodd;clip-rule:evenodd" width="189" height="189" viewBox="0 0 189 189" xml:space="preserve">
  <path style="fill:#ff0;stroke:#ff0;stroke-width:.756;stroke-linecap:round;stroke-linejoin:round;stroke-miterlimit:22.9256" d="M93.964 1.82c51.668 0 93.555 41.886 93.555 93.555 0 51.669-41.887 93.555-93.555 93.555-51.669 0-93.555-41.886-93.555-93.555C.409 43.706 42.295 1.82 93.964 1.82z"/>
  <path style="fill:red;stroke:#ff6;stroke-width:2.667;stroke-linecap:round;stroke-linejoin:round;stroke-miterlimit:22.9256" d="M93.97 26.584c49.915 0 90.379 30.86 90.379 68.926 0 38.067-40.464 68.927-90.379 68.927-49.914 0-90.379-30.86-90.379-68.927 0-38.066 40.465-68.926 90.379-68.926z"/>
  <path style="fill:#ff6;stroke:#000;stroke-width:1.334;stroke-linecap:round;stroke-linejoin:round;stroke-miterlimit:22.9256" d="M72.666 36.298V47.08l-5.258 1.283c-2.387.755-4.019 1.014-7.16 2.264-3.159 1.258-6.11 2.387-10.044 4.641-3.687 2.113-7.098 4.179-10.427 6.823-3.122 2.48-5.463 4.812-8.461 8.461-3.528 4.294-6.488 9.48-7.237 14.828l-.542 3.868h23.746l-.083 12.009H23.674c.819 3.185 1.201 6.515 2.457 9.553 1.269 3.072 3.031 5.958 5.049 8.598 1.855 2.427 4.043 4.644 6.482 6.483 3.875 2.919 7.061 5.429 12.35 7.71l13.921 6.004 9.961 3.821v10.781c-3.982-1.111-8.653-2.003-11.952-3.335l-7.384-2.98c-3.846-1.553-7.772-3.464-10.959-5.421-4.613-2.831-8.412-5.274-13.238-9.417-3.055-2.851-5.611-4.748-7.979-8.096-2.842-4.102-4.911-7.652-6.487-12.1-1.635-4.003-2.537-7.793-3.274-11.601-1.122-5.793-.506-12.422.668-18.265 1.395-6.94 4.685-12.494 9.134-18.422 3.202-4.265 9.885-10.03 15.357-13.483 6.957-4.389 8.104-4.75 11.586-6.593 4.862-2.574 13.47-6.178 18.329-7.175l4.971-1.021zm7.881-1.133.742 120.001 11.296 1.589-1.571-55.895h18.591l.179-.542V89.67H91.736l-.36-1.624V44.189c3.068 0 5.435-.256 9.205 0 2.482.168 5.308.455 8.817 1.247l8.87 2.001V36.789l-7.942-1.444c-3.933-.716-7.919-1.295-11.911-1.541-4.635-.284-7.132-.428-10.858.192l-7.01 1.169zm56.743 90.364h-11.328l.273-86.933 7.642 2.592c4.221 1.649 11.994 5.303 16.65 8.325 13.866 9 20.46 21.624 23.201 27.432 3.017 6.394 4.105 22.363 1.21 30.961-4.158 12.351-6.761 16.885-16.223 26.084-4.579 4.454-15.22 10.088-22.114 13.261-4.346 1.999-12.998 5.336-24.422 7.483-4.289.643-8.377 1.206-12.692 1.637-.226-5.076-.137-8.497-.137-10.372 3.22-.511 6.441-1.019 9.661-1.529 11.641-2.49 15.893-3.831 26.095-8.023 7.068-2.963 11.241-5.917 17.059-11.055 5.174-4.57 8.86-10.28 10.395-13.181 1.789-3.382 2.437-5.863 2.979-10.838h-27.978l-.271 24.156z"/>
  <path style="fill:red;stroke:#000;stroke-width:1.334;stroke-linecap:round;stroke-linejoin:round;stroke-miterlimit:22.9256" d="M136.879 55.134V89.91h29.412c.239-1.67-1.072-7.727-1.858-9.803-1.679-4.434-5.244-8.966-7.293-11.385a50.968 50.968 0 0 0-7.516-7.241c-1.628-1.269-5.234-4.171-8.229-5.039l-4.516-1.308z"/>
</svg>
