<svg xmlns="http://www.w3.org/2000/svg" style="shape-rendering:geometricPrecision;text-rendering:geometricPrecision;image-rendering:optimizeQuality;fill-rule:evenodd;clip-rule:evenodd" width="189" height="189" viewBox="0 0 189 189" xml:space="preserve">
  <circle style="fill:red;stroke:red;stroke-width:.756;stroke-linecap:round;stroke-linejoin:round;stroke-miterlimit:22.9256" cx="93.749" cy="95.195" r="93.555"/>
  <path style="fill:#e6e6e6" d="M142.269 55.741c3.43 2.563 7.074 5.321 9.252 9.091 2.3 3.974 3.511 7.988 2.286 11.887-1.696 6.396-4.948 10.533-10.139 14.334a81.673 81.673 0 0 1 10.489 11.538c1.682 2.708 1.798 4.692.699 10.489-2.356 8.012-2.364 8.967-6.171 14.122-2.08 2.906-5.348 5.985-10.639 10.424-1.106.962-3.649 2.761-5.915 3.424-2.384.406-4.152-.124-5.944-.699-2.194-.808-5.909-2.6-5.594-3.846.704-2.153 3.073-3.041 3.146-3.147.58-11.774.463-23.428-.349-34.962-.623-.427-3.231-1.907-3.127-4.244.102-1.033.152-1.519 2.427-3.448.931-4.872 1.397-10.001 1.399-15.384l-.699-15.383c-1.299-.264-1.924-.682-2.098-1.398-.841-4.174.791-6.854 4.895-8.042a17.268 17.268 0 0 1 8.391.699 34.71 34.71 0 0 1 7.691 4.545z"/>
  <path style="fill:red;stroke:red;stroke-width:.756;stroke-linecap:round;stroke-linejoin:round;stroke-miterlimit:22.9256" d="M134.394 96.266v33.305c1.667-1.505 3.222-2.563 5.001-4.515 1.788-2.525 3.01-4.168 3.946-7.375.935-3.206 1.17-3.853 1.663-6.482.447-2.391 0-7.883 0-7.883-.647-1.705-1.222-2.522-2.708-3.877-1.747-1.592-2.602-2.169-4.936-2.946l-2.9-.972-.066.745zm.779-36.485c-.47.47-.6 26.513-.6 26.513l4.709-2.351c3.87-1.932 4.198-6.306 4.665-8.097.672-2.584-.184-6.249-.519-7.191-.335-.941-.987-2.742-2.338-4.599-1.351-1.857-2.69-2.476-3.622-3.045-.931-.568-2.295-1.23-2.295-1.23z"/>
  <path style="fill:#e6e6e6" d="M108.706 41.757c.453 1.108.08 2.531 1.049 3.496.91 1.03 6.167 1.389 9.439 5.593.831.708.599 6.626-1.398 7.693-2.713 1.815-8.767-1.554-12.587-4.546a7.061 7.061 0 0 0-4.195-1.049c-2.22.238-3.735 1.403-4.545 3.497-.35 10.253-.467 20.508-.35 30.767 2.576.574 3.622-.736 4.895-2.098 2.434-3.249 5.176-4.95 8.741-2.098 1.385 1.568 1.448 4.154.699 6.293-.525 1.155-1.24 1.817-2.448 2.448 3.75 2.034 4.728 5.041 4.196 9.439-.549 3.618-3.556 3.652-4.895 2.798-2.11-1.975-4.414-3.273-7.692-4.895-1.104-.384-2.157-.898-3.496-.699-.117 13.055 0 26.107.35 39.158.495.616.95.953 1.619 1.527 1.097.741 2.294 1.063 3.625 1.27.234 1.879-.232 3.511-1.399 4.894H77.939c-2.934-1.377-2.296-2.203-2.098-3.146.867-1.639 3.692-2.783 5.244-4.545l.35-18.53c.23-5.149-.114-17.424-1.399-18.53-2.639-1.692-3.338-4.023-2.097-6.993.828-1.397 2.157-1.9 3.146-2.098.35-11.419.467-22.84.35-34.263-3.261.155-5.352-1.874-5.594-2.797a8.422 8.422 0 0 1-.7-4.196c.374-1.855.783-2.872 1.905-3.792 2.554-1.876 16.659-3.972 25.366-3.9 1.881.014 3.22-.346 4.895-1.398.671-.148 1.217.214 1.399.7zM64.653 47.35c1.883.704 2.073 1.414 2.797 3.147 1.049 1.981 2.342 3.625 4.545 4.545.401.829.462 2.308.35 3.497-.269 2.208-.464 3.142-3.344 3.841-.915.232-2.126-.112-2.95-.695-2.238-1.699-5.472-4.751-6.992-4.545-1.679-.253-6.313 3.424-8.041 5.594-.35 8.387-.467 16.779-.35 25.173 1.677.168 3.076-.298 4.195-1.399 1.838-1.489 1.564-4.601 2.797-4.894 4.312-.48 5.827 1.385 4.545 5.594-3.655 1.67-3.053 5.992 1.049 6.992 2.098 5.827.395 7.756-5.594 5.594-.985-4.241-2.607-5.162-6.992-4.894-.044 9.595.12 17.794.699 27.969a20.456 20.456 0 0 0 1.748 4.895c.543.886 1.161 1.421 2.84 2.405 1.749 1.276 3.527 1.743 5.901 1.79v-3.496c-.206-6.206 2.17-10.666 7.692-9.09 1.803.973.112 4.335-1.399 6.992-1.772 3.478-1.182 7.032 2.447 9.79 1.007.818 1.124 4.402.35 6.294.003.587-1.956 2.087-3.496 1.398-.324.23-6.958-3.367-10.489-4.895-4.371-1.885-8.554-3.923-12.651-5.971-3.753-1.837-6.894-3.804-9.725-6.616 2.673-1.608 5.259-3.987 5.244-5.593.583-7.936.466-15.86-.349-23.775-1.251-.547-1.95-1.479-2.098-2.797v-.699c.458-1.746 1.38-2.191 2.447-2.797.583-7.702.466-15.394-.349-23.076-2.161-1.29-2.977-3.155-2.448-5.593 4.771-4.13 21.417-14.971 27.621-14.685zm107.984 52.646c-.186-2.702-4.248-1.469-3.711 0-.635.505-.058 4.011 1.51 4.997 1.192.231.79 3.945.238 5.492-4.169 9.311-6.761 14.176-16.163 21.017-7.921 5.699-19.848 12.028-27.662 14.562-6.439 2.234-14.453 3.805-20.826 4.278-2.236.375-1.334-.092-2.826-1.399-1.806-.332-3.204.135-4.196 1.399-.293 1.975.407 3.49 2.098 4.545-1.03.497-1.496 1.312-1.399 2.448v2.097c1.321.869 2.72.869 4.196 0-.614-2.811 10.521-4.326 17.058-6.017 5.265-1.385 7.613-2.047 15.806-5.87 12.382-6.624 13.167-6.441 21.07-12.145 9.957-7.445 15.925-17.909 19.487-29.81 1.232-.374 2.164-1.073 2.797-2.098.297-.595.324-.893.324-1.825-.205-1.069-.469-1.198-1.12-1.574-1.638-.617-3.043 3.438-5.147 2.457-1.346-.324-1.616-1.138-1.534-2.554z"/>
  <path style="fill:#e6e6e6" d="M13.393 99.794c.186-2.702 4.248-1.469 3.711 0 .635.505.058 4.011-1.51 4.996-1.192.232-.79 3.946-.238 5.493 4.169 9.311 10.322 16.023 18.801 21.676 7.921 5.7 17.21 11.37 25.024 13.903 6.439 2.235 14.453 3.805 20.826 4.278 2.236.375 1.334-.091 2.826-1.399 1.806-.332 3.204.135 4.196 1.399.293 1.976-.407 3.49-2.098 4.545 1.03.496 1.496 1.312 1.399 2.448v2.098c-1.321.868-2.72.868-4.196 0 .614-2.812-10.521-4.327-17.058-6.018-5.265-1.385-7.613-2.047-15.806-5.87-11.647-6.539-12.376-7.233-20.279-12.936-9.956-7.445-16.716-17.118-20.278-29.019-1.232-.374-2.164-1.073-2.797-2.098-.297-.595-.324-.893-.324-1.825.205-1.069.469-1.197 1.12-1.574 1.638-.617 3.043 3.438 5.147 2.457 1.346-.324 1.616-1.138 1.534-2.554zm85.96-67.869c-.512 1.85 2.811 1.95 3.073 3.55-.011 1.313-2.068 2.119-2.374 2.073-1.041 3.176 2.301 4.109 5.594 1.369.541-.452.896-1.079 2.098-.699 2.937.501 5.825.891 8.391 1.556 4.847 1.163 9.433 2.667 13.985 4.387.699.183 4.774 2.062 8.14 3.521 7.274 3.139 13.712 7.531 19.612 12.431 8.052 7.12 8.964 8.887 11.756 15.165.956 3.661 1.274 5.233 1.748 7.361-1.857 1.309-1.961 1.362-2.441 3.041-.34 1.909 1.856 4.382 3.14 2.884.995-1.409 1.032-2.563 2.762-2.625 2.49-.345 3.092 2.366 4.93 1.926 1.008-.923 1.474-2.088 1.398-3.497-.732-1.864-2.67-2.414-4.319-2.241-.789-5.778-2.646-10.296-5.82-15.24-3.603-4.747-4.627-5.746-7.342-8.391-3.477-3.698-5.684-5.554-9.09-8.041-8.769-5.295-15.737-8.999-25.174-12.237-5.21-2.085-7.707-2.262-11.887-3.496-6.674-1.374-8.876-1.519-10.488-1.748-1.506-.07-2.671-.653-3.496-1.749-1.574-.954-3.416-1.411-4.196.7zm-11.625.042c.512 1.85-2.811 1.95-3.073 3.55.012 1.313 2.068 2.119 2.374 2.074 1.041 3.176-2.301 4.108-5.594 1.368-.541-.452-.896-1.079-2.098-.699-2.937.501-5.825.892-8.391 1.556-4.846 1.163-9.433 2.667-13.985 4.388-.699.183-4.774 2.061-8.14 3.521-7.274 3.139-13.712 7.53-19.612 12.43-8.052 7.121-8.964 8.887-11.756 15.165-.956 3.661-1.274 5.233-1.747 7.362 1.856 1.308 1.96 1.361 2.44 3.04.34 1.91-1.856 4.382-3.14 2.884-.995-1.408-1.032-2.563-2.761-2.624-2.491-.346-3.093 2.366-4.931 1.925-1.008-.923-1.474-2.088-1.398-3.497.732-1.864 2.67-2.413 4.319-2.24.789-5.778 2.646-10.297 5.82-15.241 3.603-4.747 4.627-5.746 7.342-8.39 3.478-3.698 5.684-5.555 9.091-8.042 8.768-5.295 15.736-8.999 25.172-12.237 5.21-2.085 7.708-2.262 11.888-3.496 6.675-1.374 8.876-1.519 10.488-1.748 1.506-.07 2.671-.652 3.496-1.749 1.575-.954 3.416-1.41 4.196.7z"/>
</svg>
