<svg xmlns="http://www.w3.org/2000/svg" style="shape-rendering:geometricPrecision;text-rendering:geometricPrecision;image-rendering:optimizeQuality;fill-rule:evenodd;clip-rule:evenodd" width="189" height="189" viewBox="0 0 189 189" xml:space="preserve">
  <path style="fill:#f60;stroke:#f60;stroke-width:.756;stroke-linecap:round;stroke-linejoin:round;stroke-miterlimit:22.9256" d="M93.88 1.685c51.669 0 93.555 41.885 93.555 93.555 0 51.669-41.886 93.555-93.555 93.555-51.669 0-93.555-41.886-93.555-93.555 0-51.67 41.886-93.555 93.555-93.555z"/>
  <path style="fill:#e6e6e6;fill-rule:nonzero" d="M124.948 57.639c-3.334 3.067-4.401 5.068-4.801 10.402-.8 7.468.934 11.868 8.535 21.736 2.4 3.2 4.4 7.067 4.4 8.534 0 1.734.667 2.267 2.134 1.734 6.534-2.534 13.868 11.068 11.735 21.869-1.067 4.934-6.668 10.668-10.535 10.668-4.401 0-9.868-4.934-13.068-11.868-3.067-6.4-6.934-8.668-8.401-4.8-.667 1.467.533 3.333 3.467 5.867 4 3.334 4.4 4.134 3.734 9.201-.667 4.134-.4 5.601.933 5.601.933 0 2-.667 2.267-1.467.4-1.067 2-1.067 6.001.134 4.934 1.467 6 1.467 10.134-1.201 11.335-6.934 14.002-25.469 5.601-39.338-2.534-4.267-4.667-8.668-4.667-9.601 0-1.067-1.067-1.867-2.534-1.867-3.334 0-9.068-4.667-11.468-9.334-4.267-8.134-1.2-16.002 6.268-16.002 4.267 0 12.134 8.401 15.202 16.002 1.467 3.6 2.933 5.334 4.667 5.334 3.467 0 3.2-2.401-.8-6.134-2.668-2.401-3.201-3.868-2.534-7.068.533-2.667.267-4.134-.667-4.134-.8 0-1.467.667-1.467 1.467 0 .934-1.2 0-2.8-2-6.268-8.001-14.935-9.468-21.336-3.734v-.001zM91.744 47.638c-1.867.933-4.268 3.6-5.334 5.867-2.534 5.468-3.334 5.468-5.201.267-1.2-3.6-1.867-4-5.734-3.6-3.734.266-4.4.933-4.4 3.733 0 2.134.8 3.334 2 3.334 1.334 0 1.867-1.067 1.733-3.067-.399-3.334 1.601-4 2.801-.8 1.467 3.734.933 40.271-.667 41.205-.933.667-.667 1.733.8 3.333 1.734 1.867 2.001 5.601 1.734 22.67-.267 14.935-.801 20.536-2.134 21.069-.933.267-1.467-.533-1.333-2.534.533-3.467-2.267-4.934-3.467-1.733-1.067 2.8 1.467 5.867 4.8 5.867 1.6 0 3.201-1.6 4.267-4.134 1.867-4.4 2.534-4.133 4.001 1.6 1.467 6.268 8.134 6.401 9.601.267 1.067-3.867.133-5.067-2.934-3.867-1.733.667-1.867 1.2-.666 2.667 1.2 1.467 1.2 2.134.133 2.8-3.067 1.867-3.734-1.733-4.667-23.069-.933-21.07-.933-21.603 1.733-21.603 3.201 0 4.268 2.4 4.268 9.468 0 3.467.533 5.2 1.867 5.2 1.333 0 1.6-1.733 1.066-7.067-.4-3.734-1.2-7.201-1.733-7.335-1.6-.666-1.467-3.867 0-4.533 2-.667 2.267-13.469.4-14.135-1.067-.267-1.6 1.333-1.6 5.334 0 5.734-1.734 9.068-4.801 9.068-2.267 0-.933-37.072 1.6-40.806 4.401-7.2 14.535-4.667 17.602 4.401.934 3.201 2.668 5.734 3.601 5.734 3.333 0 3.6-2.8.667-6.001-2.134-2.4-2.801-4.134-2.134-6.534.534-2 .267-3.467-.533-3.467-.667 0-1.334.534-1.334 1.2 0 .801-2.133.4-4.667-.666-5.601-2.267-7.067-2.267-11.335-.134v.001zm-33.871 9.868c-.533.533-3.067 1.067-5.601 1.2-5.867.133-11.201 4-14.535 10.668-1.467 2.8-2.8 5.467-3.067 5.734-.134.4-1.067-.4-2.001-1.734-2.667-3.734-9.334.801-6.801 4.668 1.334 2.133 3.201 1.2 3.201-1.601 0-1.467.667-2.266 1.334-1.867 1.866 1.201 1.733 18.403-.267 20.403-1.067 1.067-1.067 2-.134 3.201 2.134 2.667 2.8 18.669.667 19.335-.933.4-1.334-.133-.8-1.467.4-1.2.267-2.133-.4-2.133-2.4 0-2.934 1.6-1.6 4.134 1.6 3.067 4.934 3.333 6.001.533 1.333-3.2 2.667-2.4 5.2 3.334 2.534 5.734 9.334 12.535 13.869 14.002 1.467.399 3.867.133 5.333-.534 3.601-2 3.868-1.867 4.401 1.467.534 3.734 3.734 4.801 3.734 1.2 0-1.467-.533-3.067-1.334-3.467-1.866-1.2-1.6-13.468.267-16.668 1.867-3.067.534-5.068-2-2.934-1.334 1.067-2.133.8-3.334-1.2-1.066-1.734-2.8-2.534-4.667-2.267-4 .533-3.867 4.534.134 4.134 6-.667 6.934 10.935 1.2 14.935-2.267 1.6-3.201 1.6-6.401 0-6.534-3.467-8.934-8.401-10.001-21.069-.933-11.202-.8-11.602 1.867-11.602 2.934 0 3.867 1.867 4.534 9.868.267 2.134 1.2 4.134 2.133 4.534 2.534.8 2.134-12.935-.4-13.869-1.067-.533-2-1.733-2-2.667 0-1.066.933-2.267 2-2.667 1.467-.533 2.001-2.8 2.001-7.334 0-4.934-.534-6.534-2.001-6.534-2.133 0-2.4 1.066-2 7.067.267 4.134-2.001 7.601-4.801 7.601-1.467 0-1.867-2.4-1.867-9.735 0-10.801 2.401-17.069 8.134-21.336 5.068-3.6 8.801-2 11.868 5.201 2.534 5.867 4.401 7.201 6.135 4.401.4-.801-.801-2.934-2.801-4.801-2.8-2.667-3.467-4.267-2.8-7.201.667-3.734-.267-4.934-2.4-2.933z"/>
  <path style="fill:#e6e6e6;fill-rule:nonzero" d="M165.086 98.978c0 .8 1.2 1.867 2.667 2.267 3.334 1.066 2.801 4.267-2.8 16.535-5.2 11.468-17.335 23.203-30.537 29.737-16.269 7.867-36.004 11.868-36.004 7.067 0-1.066-.534-2-1.334-2-1.734 0-1.734 3.6 0 4.667.933.533.933 1.6 0 3.334-1.6 3.067-1.734 4-.133 4 .666 0 1.467-1.2 1.866-2.667.4-1.734 1.867-2.667 3.868-2.667 6.001 0 23.869-5.201 32.804-9.602 10.268-5.067 24.136-17.468 29.203-26.003 1.867-3.2 4.401-9.334 5.734-13.468 1.734-5.734 3.067-7.735 5.201-8.002 1.467-.266 2.8-1.333 2.8-2.533 0-1.467-.8-1.867-2.934-1.067-4 1.2-5.334 1.2-8.001 0-1.467-.533-2.4-.4-2.4.4v.002zm-156.019.533c0 .667 1.333 1.6 3.067 2.267 2.133.8 3.467 3.067 4.8 8.001 3.201 12.668 15.469 28.004 29.471 36.805 7.601 4.8 20.536 9.468 31.47 11.601 6.668 1.201 9.068 2.267 9.601 4.001 1.067 4.4 2.534 2.4 2.534-3.601 0-3.333-.533-6-1.2-6-.533 0-1.067.933-1.067 2 0 4.534-18.669.8-34.671-7.067-12.934-6.401-24.803-17.869-30.27-29.604-5.867-12.269-6.534-16.002-3.067-16.936 4.667-1.2 2.934-2.4-4-2.534-3.734 0-6.668.4-6.668 1.067zm88.544-67.608c0 4 .533 7.334 1.067 7.334.533 0 1.066-1.2 1.066-2.667 0-4 2.401-4.401 13.469-2.133 28.137 5.867 52.273 27.47 56.54 50.539.934 4.534.667 5.201-1.867 5.868-1.467.4-2.8 1.6-2.8 2.533 0 2.134 2.134 2.534 3.334.534.533-.801 2.8-1.067 5.467-.534 5.068.934 6.134-.8 1.6-2.8-2.133-.933-3.333-2.934-4-7.334-4.134-24.67-33.471-48.673-63.742-51.873-6.267-.667-7.334-1.2-7.734-3.867-.8-5.868-2.533-2.801-2.4 4.4zm-10.135-4.401c-.4 2.667-1.467 3.201-8.401 4.001-29.737 3.733-57.74 26.403-62.674 50.406-1.6 8.267-2.133 9.334-4.801 9.334-1.333 0-2.533.667-2.533 1.334 0 .933 1.733 1.066 4.533.667 2.668-.534 4.801-.267 5.334.533 1.334 2.133 3.467 1.733 3.467-.533 0-1.067-.8-2.001-1.867-2.001-3.333 0-3.733-2.534-1.467-10.401 3.201-10.802 7.601-17.603 17.469-26.803 9.868-9.335 24.003-16.669 37.471-19.47 12.002-2.533 12.269-2.533 13.202 1.334.4 1.867 1.334 3.333 2.001 3.333 1.6 0 1.467-2.266-.134-5.334-.933-1.733-.933-2.8 0-3.333 1.734-1.067 1.734-6.001.134-6.001-.667 0-1.468 1.334-1.734 2.934z"/>
</svg>
