<svg xmlns="http://www.w3.org/2000/svg" style="shape-rendering:geometricPrecision;text-rendering:geometricPrecision;image-rendering:optimizeQuality;fill-rule:evenodd;clip-rule:evenodd" width="189" height="189" viewBox="0 0 189 189" xml:space="preserve">
  <path style="fill:#063;stroke:#063;stroke-width:.756;stroke-linecap:round;stroke-linejoin:round;stroke-miterlimit:22.9256" d="M93.938 1.612c51.669 0 93.555 41.886 93.555 93.555 0 51.669-41.886 93.555-93.555 93.555-51.669 0-93.555-41.886-93.555-93.555 0-51.669 41.886-93.555 93.555-93.555z"/>
  <path style="fill:#e6e6e6;fill-rule:nonzero" d="M85.543 37.527c-7.868 2.933-11.602 5.867-15.869 12.535-4.934 7.867-6.001 11.734-3.734 14.401 1.333 1.734 1.333 2.267-.267 3.334-2.534 1.6-3.334 1.467-5.201-.8-1.333-1.6-1.333-2.401 0-4.001 1.467-1.733 1.067-2-1.733-2-4.801 0-7.068 4.267-4.934 9.334.933 2.134 2.534 4.134 3.6 4.667 1.734.667 1.867.4.4-1.333-2.933-3.467.534-5.734 4.001-2.667 2.533 2.267 2.667 4 2.667 33.337 0 29.07-.134 31.071-2.667 33.337-3.067 2.801-6.268 1.867-8.001-2.266-1.067-2.668-1.201-2.534-1.201 1.866-.133 5.201 3.334 9.068 8.135 9.068 3.6 0 6.534-3.734 5.6-7.334-.4-1.734 0-3.467.801-4 2.133-1.334 4.267 2.133 2.533 4.133-1.6 1.867 2.934 7.201 6.001 7.201 2.934 0 7.334-4.4 8.268-8.401.933-4.267-.267-4.667-3.201-.8-2.8 3.334-6.667 2.267-8.401-2.4-.667-1.734-1.2-20.003-1.2-40.539 0-29.603.4-38.137 1.867-40.938 6.934-13.335 26.403-18.536 38.538-10.401 6.001 4.133 10.268 12.134 10.268 19.735 0 5.334.4 6.001 2.4 5.468 3.068-.801 5.868 2.533 4.801 5.601-.667 1.467-1.867 2-4 1.6-3.067-.534-3.201-.134-3.201 5.867 0 17.469-11.734 27.336-26.003 22.003-6.668-2.668-11.335-7.601-11.335-12.269 0-3.6 2.133-5.334 3.201-2.534.933 2.668 5.6 2.534 6.667-.133 2.4-6.401-7.734-10.135-11.735-4.267-5.2 7.468.267 18.535 11.335 22.936 4.267 1.734 6.934 1.867 13.335.933 8.668-1.467 11.202-2.8 16.136-8.801 7.067-8.534 8.401-12.535 8.401-26.003 0-9.735-.534-13.735-2.534-17.335-3.467-6.668-9.868-13.069-16.135-16.269-6.801-3.601-20.803-4.534-27.604-1.867l.001.002z"/>
  <path style="fill:#e6e6e6;fill-rule:nonzero" d="M102.999 126.071c0 13.735-.254 16.136-2.254 18.003-3.334 3.067-5.068 2.8-7.468-.667l-2.134-2.934v3.601c0 4.133 4.134 8.934 7.868 8.934 4.267 0 6.801-3.6 5.867-8.001-.533-3.067-.266-4.001 1.334-4.001 2.534 0 3.867 3.201 2 5.068-1.6 1.6 3.201 6.934 6.268 6.934 3.067 0 8.668-6.134 8.668-9.334 0-3.067-2.001-3.601-3.201-.667-1.066 2.934-7.067 2.534-8.801-.534-.666-1.467-1.333-9.201-1.333-17.335v-14.802h-6.757L103 123.647l-.001 2.424zm7.213-77.343c-1.467 1.201-3.734 4.268-5.067 6.668-2.134 3.6-2.4 4.801-.933 7.067 2.8 4.268-1.067 7.335-4.801 3.601-1.067-1.067-1.2-2.001-.133-3.334 2.667-3.067-2.668-3.734-5.734-.667-2.534 2.401-2.668 3.201-1.067 6.934 2 4.668 4.134 6.535 3.067 2.668-.533-2.001 0-2.668 2-2.668 4.401 0 5.601 4.134 5.601 19.87 0 14.668 0 14.668 3.067 13.601 2.001-.8 3.067-2.4 3.334-5.334.533-4.667 1.2-5.067 3.734-1.867 1.6 2.001 2 2.134 3.067.534.933-1.334.533-3.067-1.334-5.601-5.867-8.268-6.534-27.87-1.2-36.805 2.001-3.333 2.134-4.534.8-5.601-1.2-1.066-2.4-.8-4.4.934h-.001zm13.069-8.001c-2.668.8-2.801 1.2-1.201 2.534 1.467 1.2 3.201 1.334 6.534.4 6.268-1.867 16.136.667 21.07 5.2 3.734 3.467 6.801 11.069 6.801 16.936 0 2 .8 2.667 3.067 2.667 2.267-.133 2.934.667 2.934 3.201 0 2.533-.667 3.333-2.934 3.2-2.667 0-3.067.534-3.067 5.334 0 7.201-3.601 14.002-9.335 17.869-4.133 2.8-5.733 3.067-13.601 2.534-6.534-.534-9.334-.267-10.402 1.066-1.066 1.334-.533 2.001 2.801 3.201 2.4.8 5.2 1.467 6.4 1.467 1.467.133 4.401 5.334 9.202 16.802 5.6 13.335 6.667 17.202 5.6 19.202-1.866 3.601-6 3.334-8.534-.266-2.133-2.934-2.133-2.934-2.133 2 0 6.268 4.533 9.868 10.268 7.868 3.2-1.067 3.733-1.867 3.733-6.401 0-3.734.534-5.201 2.001-5.201 1.333 0 2 1.467 2.133 4.401.134 4.801 2.134 6.934 6.801 6.934 3.868 0 7.068-3.467 7.068-7.734-.134-3.067-.267-3.334-1.467-1.334-3.868 6.801-10.001 0-18.936-20.669l-7.468-17.069 3.601-.667c5.867-1.2 16.002-9.334 19.202-15.468 2.267-4.534 2.934-8.002 3.067-16.536 0-9.734-.4-11.334-4-17.335-2.267-3.601-6.668-8.268-9.868-10.402-5.068-3.333-7.334-4-16.002-4.267-5.601-.267-11.602 0-13.335.534v-.001z"/>
  <path style="fill:#e6e6e6;fill-rule:nonzero" d="M73.808 101.268c0 3.467.933 4.934 4.534 7.334 11.201 7.335 15.068 18.27 9.868 28.271-4.534 8.801-8.668 11.334-19.869 11.868-16.536.933-28.671-4.801-34.405-16.136-2.8-5.6-2.934-7.067-1.733-11.334.933-2.934 3.067-5.868 5.2-7.201l3.734-2.267-4.401-.133c-5.867 0-9.068 1.866-11.601 6.8-1.734 3.334-1.867 4.935-.534 8.935 1.867 5.734 4.801 9.601 7.468 9.601 2.4 0 1.734 4.267-.667 5.068-.933.266-2.133-.667-2.533-2.267-.801-3.067-4.268-3.734-6.801-1.2-2.801 2.8-1.734 7.334 2.533 10.934 4.801 4.134 8.401 4.668 4.134.667-1.6-1.467-2.667-3.2-2.267-4 1.334-2.001 5.868-1.334 15.869 2.267 6.268 2.266 13.202 3.734 20.803 4.133 10.534.534 11.868.4 18.669-3.2 4.667-2.4 7.467-4.667 7.734-6.401.933-5.601 1.6-6.801 2.934-4.667.933 1.467 1.467 1.067 2.667-2 2.4-6.134 1.867-16.136-.934-21.736-2.4-4.401-16.668-17.603-19.335-17.603-.534 0-1.067 2.001-1.067 4.267zm1.467-48.406c-.8 1.334-.933 2.934-.4 3.334.533.533 2.133 4.934 3.6 9.868 2.134 6.667 3.601 9.334 6.268 10.935 3.334 1.733 3.867 1.733 5.867-.267 2.001-2.001 2.001-2.534.534-4.401-1.734-2.133-2.001-2-3.601.267-1.6 2-2 2.133-3.067.4-2-3.201-1.6-11.468.8-13.469 1.6-1.333 2.668-1.333 4.668-.133 2.133 1.333 2.533 1.2 3.333-1.734 1.067-4.133-1.333-7.334-5.467-7.334-2.401 0-2.8.533-2.401 3.201.4 2-.133 3.333-1.467 3.867-2.133.8-2.533.267-4.267-5.467-.667-2.401-2.933-2.001-4.4.933zM46.738 42.594c-11.468 3.067-19.603 16.002-17.603 28.27 1.334 7.601 3.601 11.469 10.002 17.336 4.267 3.867 20.536 12.802 23.336 12.802.267 0 .267-2.001.133-4.401-.133-3.867-.933-4.667-9.201-9.201-5.067-2.668-10.401-6.001-11.868-7.335-9.735-8.801-8.134-26.003 3.067-31.87 4-2.001 15.735-2.267 22.536-.4 1.067.267 2-.267 2-1.334 0-1.2-2.533-2.667-6.667-3.734-7.601-2-8.801-2-15.736-.133h.001z"/>
</svg>
